# xmcd
#
# Track frame offsets:
#	150
#	18300
#	35850
#	51075
#	70275
#	97125
#	109725
#	133050
#	151500
#	171825
#	191625
#	210825
#	228525
#	249525
#	263925
#	293475
#	306450
#
# Disc length: 4297 seconds
#
# Revision: 1
# Processed by: cddbd v1.5.2PL0 Copyright (c) Steve Scherf et al.
# Submitted via: audiograbber 1.83.01
#
DISCID=f310c711
DTITLE=Die Legendäre Fetencombo - Live in Hockstein 07.07.2012
DYEAR=2012
DGENRE=Blues-Rock
TTITLE0=Op em Titelblatt
TTITLE1=Für watt dann
TTITLE2=Limmo
TTITLE3=Harry
TTITLE4=D'r Mondach is am schlimmste
TTITLE5=Lang alleen
TTITLE6=Dä wilde Mann
TTITLE7=Cadillac
TTITLE8=Badewannen-Blues
TTITLE9=Jerd
TTITLE10=Fernseh-Blues
TTITLE11=Stromausfall
TTITLE12=Ronk öm de Uhr
TTITLE13=Ich hür disch kloppe
TTITLE14=Schlaffe Samsdaach
TTITLE15=Bumm Bumm - ich werd' noch verrück'
TTITLE16=Waat nit ze lang
EXTD=
EXTT0=
EXTT1=
EXTT2=
EXTT3=
EXTT4=
EXTT5=
EXTT6=
EXTT7=
EXTT8=
EXTT9=
EXTT10=
EXTT11=
EXTT12=
EXTT13=
EXTT14=
EXTT15=
EXTT16=
PLAYORDER=
